<svg width="54" height="54" viewBox="0 0 54 54" fill="none" xmlns="http://www.w3.org/2000/svg">
<g id="thumbs-up">
<path id="Vector" d="M15.75 24.75L24.75 4.5C26.5402 4.5 28.2571 5.21116 29.523 6.47703C30.7888 7.7429 31.5 9.45979 31.5 11.25V20.25H44.235C44.8873 20.2426 45.5334 20.3771 46.1285 20.6442C46.7237 20.9113 47.2536 21.3047 47.6817 21.7969C48.1097 22.2892 48.4256 22.8686 48.6075 23.4951C48.7894 24.1215 48.8329 24.7801 48.735 25.425L45.63 45.675C45.4673 46.748 44.9222 47.7261 44.0953 48.429C43.2684 49.1319 42.2152 49.5123 41.13 49.5H15.75M15.75 24.75V49.5M15.75 24.75H9C7.80653 24.75 6.66193 25.2241 5.81802 26.068C4.97411 26.9119 4.5 28.0565 4.5 29.25V45C4.5 46.1935 4.97411 47.3381 5.81802 48.182C6.66193 49.0259 7.80653 49.5 9 49.5H15.75" stroke="#009A06" stroke-width="2" stroke-linecap="round" stroke-linejoin="round"/>
</g>
</svg>
